<svg width="285" height="100" viewBox="0 0 285 100" fill="none" xmlns="http://www.w3.org/2000/svg">
<g clip-path="url(#clip0_9_2)">
<path d="M50 0C61.5678 1.37944e-07 72.7777 4.01097 81.7197 11.3495C90.6617 18.688 96.7825 28.9 99.0393 40.2455C101.296 51.591 99.5491 63.368 94.0961 73.5698C88.6431 83.7717 79.8214 91.7672 69.1342 96.194C58.4469 100.621 46.5554 101.205 35.4858 97.847C24.4161 94.4891 14.8532 87.3967 8.42651 77.7785C1.99981 68.1603 -0.893078 56.6112 0.240765 45.0991C1.37461 33.5871 6.46503 22.8243 14.6447 14.6446L19.2254 19.2254C12.1056 26.3453 7.67468 35.7136 6.68774 45.7341C5.7008 55.7546 8.21888 65.8074 13.8129 74.1794C19.407 82.5515 27.7308 88.7249 37.3663 91.6478C47.0017 94.5707 57.3525 94.0622 66.6551 90.2089C75.9576 86.3557 83.6363 79.3961 88.3828 70.5161C93.1293 61.636 94.6499 51.3848 92.6856 41.5093C90.7212 31.6338 85.3934 22.7449 77.61 16.3572C69.8265 9.96946 60.069 6.47817 50 6.47817L50 0Z" fill="#111111" style="fill:#111111;fill:color(display-p3 0.0667 0.0667 0.0667);fill-opacity:1;"/>
<path d="M131.441 31.3011H137.355V64.6344H156.817V69.7419H131.441V31.3011ZM177.727 70.4946C166.276 70.4946 158.91 62.0538 158.91 50.4946C158.91 38.9355 166.276 30.5484 177.727 30.5484C189.233 30.5484 196.598 38.9355 196.598 50.4946C196.598 62.0538 189.233 70.4946 177.727 70.4946ZM177.727 65.3871C186.813 65.3871 190.469 58.3979 190.469 50.4946C190.469 42.5914 186.813 35.6559 177.727 35.6559C168.695 35.6559 165.039 42.5914 165.039 50.4946C165.039 58.3979 168.695 65.3871 177.727 65.3871ZM231.015 43.1828C229.994 38.3441 226.392 35.6559 220.693 35.6559C212.198 35.6559 208.865 43.2903 208.865 50.4946C208.865 57.7527 211.392 65.3871 220.37 65.3871C226.714 65.3871 231.768 60.9785 231.768 54.5807H220.478V49.6344H237.79V69.7419H233.757L232.252 64.4194H232.144C229.51 68.3441 225.908 70.4946 220.048 70.4946C208.919 70.4946 202.736 62.1075 202.736 50.4946C202.736 38.9355 209.779 30.5484 220.747 30.5484C230.639 30.5484 235.908 35.871 237.198 43.1828H231.015ZM263.541 70.4946C252.089 70.4946 244.724 62.0538 244.724 50.4946C244.724 38.9355 252.089 30.5484 263.541 30.5484C275.046 30.5484 282.412 38.9355 282.412 50.4946C282.412 62.0538 275.046 70.4946 263.541 70.4946ZM263.541 65.3871C272.627 65.3871 276.283 58.3979 276.283 50.4946C276.283 42.5914 272.627 35.6559 263.541 35.6559C254.509 35.6559 250.853 42.5914 250.853 50.4946C250.853 58.3979 254.509 65.3871 263.541 65.3871Z" fill="#111111" style="fill:#111111;fill:color(display-p3 0.0667 0.0667 0.0667);fill-opacity:1;"/>
</g>
<defs>
<clipPath id="clip0_9_2">
<rect width="285" height="100" fill="white" style="fill:white;fill-opacity:1;"/>
</clipPath>
</defs>
</svg>
